<svg width="71" height="72" viewBox="0 0 71 72" fill="none" xmlns="http://www.w3.org/2000/svg">
<g id="devicon:css3">
<path id="Vector" d="M10.9983 63.1716L5.5 1.5H65.9187L60.415 63.1623L35.6727 70.0218L10.9983 63.1716Z" fill="#1572B6"/>
<path id="Vector_2" d="M35.71 64.9955L55.8228 59.411L60.5546 6.32466H35.71V64.9955Z" fill="#33A9DC"/>
<path id="Vector_3" d="M35.71 28.8349H45.7787L46.4741 21.0318H35.71V13.4115H54.7901L54.6075 15.4561L52.737 36.4551H35.71V28.8349Z" fill="white"/>
<path id="Vector_4" d="M35.755 48.6251L35.7215 48.635L27.2476 46.3436L26.7057 40.266H19.0685L20.1342 52.231L35.7204 56.5632L35.755 56.5532V48.6251Z" fill="#EBEBEB"/>
<path id="Vector_5" d="M45.1317 36.1328L44.2152 46.3375L35.7286 48.6317V56.5599L51.3275 52.2305L51.4419 50.9429L52.7656 36.1328H45.1317Z" fill="white"/>
<path id="Vector_6" d="M35.7358 13.4115V21.0318H17.3565L17.2041 19.3194L16.8575 15.4561L16.6754 13.4115H35.7358ZM35.7099 28.836V36.4562H27.3428L27.1904 34.7438L26.8432 30.8806L26.6617 28.836H35.7099Z" fill="#EBEBEB"/>
</g>
</svg>
