<svg width="160" height="160" viewBox="0 0 160 160" fill="none" xmlns="http://www.w3.org/2000/svg">
<g id="Group">
<path id="Vector" d="M122.5 0H37.5C16.7893 0 0 16.7893 0 37.5V122.5C0 143.211 16.7893 160 37.5 160H122.5C143.211 160 160 143.211 160 122.5V37.5C160 16.7893 143.211 0 122.5 0Z" fill="#001E36"/>
<path id="Vector_2" d="M36 111.275V42.6751C36 42.2082 36.2 41.942 36.6669 41.942C37.8 41.942 38.8669 41.942 40.4 41.8751C42 41.8082 43.6669 41.8082 45.4669 41.742C47.2669 41.6751 49.2 41.6751 51.2669 41.6082C53.3331 41.542 55.3331 41.542 57.3331 41.542C62.8 41.542 67.3331 42.2082 71.0669 43.6082C74.4135 44.7448 77.465 46.6123 80 49.0751C82.1482 51.2304 83.8079 53.8223 84.8669 56.6751C85.8669 59.4751 86.4 62.342 86.4 65.342C86.4 71.0751 85.0669 75.8082 82.4 79.542C79.7331 83.2751 76 86.0751 71.6669 87.6751C67.1331 89.342 62.1331 89.942 56.6669 89.942C55.0669 89.942 54 89.942 53.3331 89.8751C52.6669 89.8082 51.7331 89.8082 50.4669 89.8082V111.208C50.5331 111.675 50.2 112.075 49.7331 112.142H36.8C36.2669 112.142 36 111.875 36 111.275ZM50.5331 54.8082V77.2082C51.4669 77.2751 52.3331 77.342 53.1331 77.342H56.6669C59.2669 77.342 61.8669 76.942 64.3331 76.142C66.4669 75.542 68.3331 74.2751 69.8 72.6082C71.2 70.942 71.8669 68.6751 71.8669 65.742C71.9295 63.6586 71.3975 61.6004 70.3331 59.8082C69.2 58.0751 67.6 56.742 65.6669 56.0082C63.2 55.0082 60.5331 54.6082 57.8 54.6751C56.0669 54.6751 54.5331 54.6751 53.2669 54.742C51.9331 54.6751 51 54.742 50.5331 54.8082ZM128 73.142C126 72.0751 123.867 71.342 121.6 70.8751C119.133 70.342 116.667 70.0082 114.133 70.0082C112.8 69.942 111.4 70.142 110.133 70.4751C109.267 70.6751 108.533 71.142 108.067 71.8082C107.733 72.342 107.533 73.0082 107.533 73.6082C107.533 74.2082 107.8 74.8082 108.2 75.342C108.8 76.0751 109.6 76.6751 110.467 77.142C112.012 77.9425 113.592 78.6765 115.2 79.342C118.8 80.542 122.267 82.2082 125.467 84.2082C127.667 85.6082 129.467 87.4751 130.733 89.742C131.8 91.8751 132.333 94.2082 132.267 96.6082C132.333 99.742 131.4 102.875 129.667 105.475C127.807 108.136 125.213 110.198 122.2 111.408C118.933 112.808 114.933 113.542 110.133 113.542C107.067 113.542 104.067 113.275 101.067 112.675C98.7156 112.269 96.4288 111.552 94.2669 110.542C93.8 110.275 93.4669 109.808 93.5331 109.275V97.6751C93.5331 97.4751 93.6 97.2082 93.8 97.0751C94 96.942 94.2 97.0082 94.4 97.142C97 98.6751 99.7331 99.742 102.667 100.408C105.2 101.075 107.867 101.408 110.533 101.408C113.067 101.408 114.867 101.075 116.067 100.475C117.133 100.008 117.867 98.8751 117.867 97.6751C117.867 96.742 117.333 95.8751 116.267 95.0082C115.2 94.142 113 93.142 109.733 91.8751C106.382 90.6943 103.2 89.0806 100.267 87.0751C98.1778 85.5861 96.4469 83.6502 95.2 81.4082C94.1331 79.2751 93.6 76.942 93.6669 74.6082C93.6669 71.742 94.4669 69.0082 95.9331 66.542C97.6 63.8751 100.067 61.742 102.933 60.4082C106.067 58.8082 110 58.0751 114.733 58.0751C117.467 58.0751 120.267 58.2751 123 58.6751C125 58.942 126.933 59.4751 128.733 60.2082C129 60.2751 129.267 60.542 129.4 60.8082C129.467 61.0751 129.533 61.342 129.533 61.6082V72.4751C129.533 72.742 129.4 73.0082 129.2 73.142C128.6 73.2751 128.267 73.2751 128 73.142Z" fill="#31A8FF"/>
</g>
</svg>
