<svg width="71" height="70" viewBox="0 0 71 70" fill="none" xmlns="http://www.w3.org/2000/svg">
<g id="vscode-icons:file-type-html">
<path id="Vector" d="M13.4153 59.6272L8.5 4.5H62.5094L57.5875 59.6184L35.4719 65.75L13.4153 59.6272Z" fill="#E44F26"/>
<path id="Vector_2" d="M35.5047 60.7865L53.379 55.8849L57.5839 9.28825H35.5047V60.7865Z" fill="#F1662A"/>
<path id="Vector_3" d="M35.5047 29.5136H26.5566L25.9397 22.6643H35.5047V15.9752H18.5493L18.7112 17.7714L20.3717 36.2027H35.5047V29.5136ZM35.5047 46.8845L35.4741 46.8932L27.9437 44.8828L27.4624 39.5483H20.6737L21.621 50.0484L35.4741 53.8528L35.5047 53.8441V46.8845Z" fill="#EBEBEB"/>
<path id="Vector_4" d="M35.4806 29.5136V36.2027H43.8073L43.0241 44.8784L35.4806 46.891V53.8506L49.3446 50.0484L49.4453 48.9187L51.0336 31.3098L51.1999 29.5136H35.4806ZM35.4806 15.9752V22.6643H51.8147L51.9503 21.1625L52.2588 17.7714L52.4207 15.9752H35.4806Z" fill="white"/>
</g>
</svg>
