<svg width="127" height="127" viewBox="0 0 127 127" fill="none" xmlns="http://www.w3.org/2000/svg">
<g id="bi:instagram" clip-path="url(#clip0_200_1318)">
<path id="Vector" d="M63.5 0C46.2677 0 44.1008 0.079375 37.3301 0.381C30.5594 0.6985 25.9477 1.76212 21.9075 3.33375C17.6676 4.92383 13.8282 7.42473 10.6601 10.6601C7.42473 13.8282 4.92383 17.6676 3.33375 21.9075C1.76212 25.9398 0.690563 30.5594 0.381 37.3062C0.079375 44.0928 0 46.2518 0 63.5079C0 80.7482 0.079375 82.9072 0.381 89.6779C0.6985 96.4406 1.76212 101.052 3.33375 105.092C4.96094 109.268 7.12788 112.808 10.6601 116.34C14.1843 119.872 17.7244 122.047 21.8996 123.666C25.9477 125.238 30.5514 126.309 37.3142 126.619C44.0928 126.921 46.2518 127 63.5 127C80.7482 127 82.8993 126.921 89.6779 126.619C96.4327 126.301 101.06 125.238 105.1 123.666C109.337 122.075 113.174 119.574 116.34 116.34C119.872 112.808 122.039 109.268 123.666 105.092C125.23 101.052 126.301 96.4406 126.619 89.6779C126.921 82.9072 127 80.7482 127 63.5C127 46.2518 126.921 44.0928 126.619 37.3142C126.301 30.5594 125.23 25.9398 123.666 21.9075C122.076 17.6676 119.575 13.8282 116.34 10.6601C113.172 7.42473 109.332 4.92383 105.092 3.33375C101.044 1.76212 96.4247 0.690563 89.6699 0.381C82.8913 0.079375 80.7403 0 63.4841 0H63.5ZM57.8088 11.4459H63.5079C80.4624 11.4459 82.4706 11.5014 89.1619 11.811C95.3532 12.0888 98.7187 13.1286 100.957 13.9938C103.918 15.1448 106.037 16.5259 108.26 18.7484C110.482 20.9709 111.855 23.0823 113.006 26.0509C113.879 28.2813 114.911 31.6468 115.189 37.8381C115.499 44.5294 115.562 46.5376 115.562 63.4841C115.562 80.4307 115.499 82.4468 115.189 89.1381C114.911 95.3294 113.871 98.6869 113.006 100.925C111.981 103.679 110.357 106.17 108.252 108.22C106.029 110.442 103.918 111.816 100.949 112.967C98.7266 113.84 95.3611 114.872 89.1619 115.157C82.4706 115.459 80.4624 115.53 63.5079 115.53C46.5534 115.53 44.5373 115.459 37.846 115.157C31.6548 114.872 28.2972 113.84 26.0588 112.967C23.3032 111.945 20.8089 110.323 18.7563 108.22C16.6471 106.169 15.0204 103.674 13.9938 100.917C13.1286 98.6869 12.0888 95.3214 11.811 89.1302C11.5094 82.4389 11.4459 80.4307 11.4459 63.4682C11.4459 46.5058 11.5094 44.5135 11.811 37.8222C12.0968 31.6309 13.1286 28.2654 14.0018 26.0271C15.1527 23.0664 16.5338 20.9471 18.7563 18.7246C20.9788 16.5021 23.0902 15.1289 26.0588 13.9779C28.2972 13.1048 31.6548 12.0729 37.846 11.7872C43.7039 11.5173 45.974 11.4379 57.8088 11.43V11.4459ZM97.4011 21.9869C96.4004 21.9869 95.4095 22.184 94.485 22.5669C93.5605 22.9499 92.7205 23.5111 92.0129 24.2187C91.3053 24.9263 90.744 25.7663 90.3611 26.6908C89.9782 27.6153 89.7811 28.6062 89.7811 29.6069C89.7811 30.6075 89.9782 31.5984 90.3611 32.5229C90.744 33.4474 91.3053 34.2874 92.0129 34.995C92.7205 35.7026 93.5605 36.2639 94.485 36.6468C95.4095 37.0298 96.4004 37.2269 97.4011 37.2269C99.422 37.2269 101.36 36.4241 102.789 34.995C104.218 33.566 105.021 31.6278 105.021 29.6069C105.021 27.5859 104.218 25.6477 102.789 24.2187C101.36 22.7897 99.422 21.9869 97.4011 21.9869ZM63.5079 30.8927C59.1826 30.8253 54.887 31.6189 50.8713 33.2275C46.8556 34.8361 43.2 37.2274 40.1173 40.2624C37.0347 43.2973 34.5866 46.9151 32.9156 50.9053C31.2445 54.8954 30.384 59.1781 30.384 63.504C30.384 67.8299 31.2445 72.1126 32.9156 76.1027C34.5866 80.0928 37.0347 83.7107 40.1173 86.7456C43.2 89.7805 46.8556 92.1719 50.8713 93.7804C54.887 95.389 59.1826 96.1827 63.5079 96.1152C72.0689 95.9816 80.2339 92.4871 86.2408 86.3858C92.2476 80.2845 95.6143 72.0659 95.6143 63.504C95.6143 54.942 92.2476 46.7234 86.2408 40.6221C80.2339 34.5209 72.0689 31.0263 63.5079 30.8927ZM63.5079 42.3307C66.2879 42.3307 69.0407 42.8782 71.6091 43.9421C74.1775 45.006 76.5112 46.5653 78.4769 48.531C80.4427 50.4968 82.002 52.8305 83.0658 55.3989C84.1297 57.9672 84.6773 60.72 84.6773 63.5C84.6773 66.28 84.1297 69.0328 83.0658 71.6011C82.002 74.1695 80.4427 76.5032 78.4769 78.469C76.5112 80.4347 74.1775 81.994 71.6091 83.0579C69.0407 84.1217 66.2879 84.6693 63.5079 84.6693C57.8935 84.6693 52.509 82.439 48.539 78.469C44.569 74.4989 42.3386 69.1145 42.3386 63.5C42.3386 57.8855 44.569 52.5011 48.539 48.531C52.509 44.561 57.8935 42.3307 63.5079 42.3307Z" fill="#9F83D0"/>
</g>
<defs>
<clipPath id="clip0_200_1318">
<rect width="127" height="127" fill="white"/>
</clipPath>
</defs>
</svg>
