<svg width="71" height="71" viewBox="0 0 71 71" fill="none" xmlns="http://www.w3.org/2000/svg">
<g id="logos:adobe-indesign" clip-path="url(#clip0_55_490)">
<path id="Vector" d="M58.8789 0.5H12.1211C5.70294 0.5 0.5 5.82781 0.5 12.4V58.488C0.5 65.0602 5.70294 70.388 12.1211 70.388H58.8789C65.2971 70.388 70.5 65.0602 70.5 58.488V12.4C70.5 5.82781 65.2971 0.5 58.8789 0.5Z" fill="#49021F"/>
<path id="Vector_2" d="M25.9212 18.7539V49.3352C25.9212 49.6556 25.7804 49.8155 25.4985 49.8155H19.8164C19.5657 49.8155 19.4405 49.6553 19.441 49.3352V18.7539C19.441 18.4981 19.5818 18.3701 19.8635 18.3698H25.5455C25.5933 18.3629 25.642 18.3667 25.6882 18.381C25.7344 18.3952 25.777 18.4196 25.813 18.4524C25.849 18.4852 25.8777 18.5257 25.8969 18.5709C25.9161 18.6162 25.9254 18.6652 25.9242 18.7145L25.9212 18.7539ZM43.0346 50.2924L42.7321 50.2955C40.5708 50.3291 38.4293 49.87 36.4633 48.9514C34.6318 48.0848 33.1008 46.6701 32.0727 44.8945C31.0339 43.1308 30.5021 40.9324 30.4769 38.2999L30.4761 38.1014C30.4585 35.898 31.0093 33.7288 32.073 31.8123C33.1392 29.9126 34.6942 28.3479 36.5691 27.2884L36.7217 27.2034C38.7561 26.0513 41.2137 25.4752 44.0941 25.4752L44.1548 25.4755L44.2896 25.4785L44.4422 25.4847L44.6126 25.4936L44.8004 25.5056L45.0058 25.521L45.4698 25.5599L45.5967 25.5711V16.1138C45.5967 15.8902 45.6907 15.7775 45.8783 15.7775H51.7952C51.8335 15.7719 51.8725 15.7755 51.9092 15.788C51.9459 15.8005 51.9792 15.8215 52.0065 15.8494C52.0338 15.8774 52.0544 15.9115 52.0666 15.949C52.0789 15.9865 52.0824 16.0263 52.0769 16.0655V44.4386C52.0788 45.0314 52.1023 45.6239 52.1474 46.2149L52.1917 46.8338L52.2308 47.4099L52.2647 47.9431C52.2705 48.0428 52.2468 48.142 52.1965 48.2277C52.1462 48.3134 52.0719 48.3816 51.9831 48.4233C50.4566 49.0741 48.8668 49.5568 47.2403 49.8633C45.8525 50.1252 44.4459 50.2688 43.0348 50.2924M45.5969 44.3424V31.2362C45.3432 31.1659 45.084 31.1178 44.8223 31.0922C44.5024 31.0593 44.181 31.0433 43.8595 31.0441C42.7198 31.0327 41.5938 31.2957 40.5725 31.8123C39.5776 32.3179 38.7282 33.0789 38.1072 34.0208C37.4652 34.9808 37.1442 36.2452 37.1445 37.8135C37.1216 38.8599 37.2888 39.9016 37.6375 40.8858C37.9212 41.6789 38.3699 42.3996 38.9524 42.9983C39.5101 43.5491 40.1853 43.9599 40.9247 44.1985C41.7057 44.457 42.5221 44.5868 43.343 44.5828C43.7811 44.5828 44.1879 44.5666 44.5639 44.5345C44.8638 44.5114 45.161 44.4609 45.452 44.3835L45.5969 44.3424Z" fill="#FF3366"/>
</g>
<defs>
<clipPath id="clip0_55_490">
<rect width="70" height="69.888" fill="white" transform="translate(0.5 0.5)"/>
</clipPath>
</defs>
</svg>
