<svg width="71" height="71" viewBox="0 0 71 71" fill="none" xmlns="http://www.w3.org/2000/svg">
<g id="Group">
<path id="Vector" d="M54.0938 0.5H16.9062C7.84533 0.5 0.5 7.84533 0.5 16.9062V54.0938C0.5 63.1547 7.84533 70.5 16.9062 70.5H54.0938C63.1547 70.5 70.5 63.1547 70.5 54.0938V16.9062C70.5 7.84533 63.1547 0.5 54.0938 0.5Z" fill="#242938"/>
<g id="Clip path group">
<mask id="mask0_55_515" style="mask-type:luminance" maskUnits="userSpaceOnUse" x="17" y="8" width="37" height="55">
<g id="skillIconsFigmaDark0">
<path id="Vector_2" d="M17.1797 8.15625H53.6453V62.8438H17.1797V8.15625Z" fill="white"/>
</g>
</mask>
<g mask="url(#mask0_55_515)">
<g id="Group_2">
<path id="Vector_3" d="M26.298 62.8437C31.3292 62.8437 35.4125 58.7605 35.4125 53.7293V44.6145H26.298C21.2667 44.6145 17.1832 48.698 17.1832 53.7293C17.1832 58.7605 21.2667 62.8437 26.298 62.8437Z" fill="#0ACF83"/>
<path id="Vector_4" d="M17.1832 35.5C17.1832 30.4687 21.2667 26.3855 26.298 26.3855H35.4125V44.6145H26.298C21.2667 44.6145 17.1832 40.5312 17.1832 35.5Z" fill="#A259FF"/>
<path id="Vector_5" d="M17.1832 17.2707C17.1832 12.2395 21.2667 8.15625 26.298 8.15625H35.4125V26.3855H26.298C21.2667 26.3855 17.1832 22.302 17.1832 17.2707Z" fill="#F24E1E"/>
<path id="Vector_6" d="M35.4125 8.15625H44.527C49.5582 8.15625 53.6417 12.2395 53.6417 17.2707C53.6417 22.302 49.5582 26.3855 44.527 26.3855H35.4125V8.15625Z" fill="#FF7262"/>
<path id="Vector_7" d="M53.6417 35.5C53.6417 40.5312 49.5582 44.6145 44.527 44.6145C39.4957 44.6145 35.4125 40.5312 35.4125 35.5C35.4125 30.4687 39.4957 26.3855 44.527 26.3855C49.5582 26.3855 53.6417 30.4687 53.6417 35.5Z" fill="#1ABCFE"/>
</g>
</g>
</g>
</g>
</svg>
