<svg width="160" height="160" viewBox="0 0 160 160" fill="none" xmlns="http://www.w3.org/2000/svg">
<g id="logos:adobe-animate" clip-path="url(#clip0_126_150)">
<g id="Frame 73">
<path id="Vector" d="M133.438 0H26.5625C11.8924 0 0 12.1779 0 27.2V132.544C0 147.566 11.8924 159.744 26.5625 159.744H133.438C148.108 159.744 160 147.566 160 132.544V27.2C160 12.1779 148.108 0 133.438 0Z" fill="#00005B"/>
<path id="Vector_2" d="M64.6956 95.4202H39.9019L34.8094 111.416C34.7446 111.691 34.5933 111.936 34.3788 112.115C34.1642 112.293 33.8983 112.395 33.6219 112.404H20.9637C20.2475 112.404 19.9969 112.001 20.2125 111.196L41.7687 48.3079L42.0544 47.4433C42.1737 47.0772 42.2931 46.6881 42.4125 46.2203C42.6937 44.7565 42.8375 43.2683 42.8419 41.7763C42.8274 41.672 42.8368 41.5656 42.8694 41.4657C42.9021 41.3657 42.957 41.2749 43.0298 41.2004C43.1027 41.1259 43.1915 41.0698 43.2893 41.0364C43.3871 41.003 43.4911 40.9934 43.5931 41.0082H60.6587C61.1587 41.0082 61.445 41.191 61.5175 41.5571L85.7925 111.306C86.0075 112.037 85.7925 112.404 85.1487 112.403H71.1956C70.9559 112.43 70.7146 112.367 70.517 112.226C70.3194 112.085 70.1789 111.874 70.1219 111.635L64.6956 95.4202ZM43.8081 81.8861H60.7662L60.525 81.0701L60.1362 79.7781L59.5687 77.9276L58.4781 74.4343L55.5069 64.8222C54.9728 63.0956 54.4603 61.3621 53.9694 59.6222L53.4206 57.644L52.9706 56.0037L52.4175 53.9526L52.2869 53.4651H52.18C51.6427 56.099 50.9885 58.7066 50.2194 61.2797L49.4944 63.6586L47.7506 69.4094L46.6275 73.1283L46.1506 74.6791L45.6769 76.1934L45.2056 77.6714C44.7524 79.0807 44.2869 80.4856 43.8081 81.8861ZM93.3056 111.359V70.9123C93.3056 70.6363 93.3056 70.3526 93.3031 70.0625L93.2956 69.1679L93.2825 68.2305L93.2525 66.743L93.2169 65.4439C93.1975 64.8168 93.1746 64.1897 93.1481 63.5628L93.0919 62.3532L93.0106 60.8529L92.9431 59.7539L92.9031 59.1928L92.8769 58.8682C92.8352 58.7588 92.8231 58.64 92.8419 58.5242C92.8607 58.4083 92.9097 58.2998 92.9837 58.2101C93.0715 58.1315 93.1737 58.0717 93.2843 58.034C93.395 57.9964 93.5118 57.9817 93.6281 57.9909H104.342C104.712 57.9784 105.08 58.0534 105.416 58.2101C105.706 58.3628 105.905 58.6491 105.952 58.9781L106.436 60.4599C106.633 61.186 106.759 61.9305 106.811 62.6823C108.886 60.8239 111.291 59.3899 113.895 58.458C116.484 57.5417 119.205 57.0779 121.945 57.0861C124.079 57.0963 126.197 57.4482 128.224 58.1289C130.564 58.8938 132.698 60.2039 134.459 61.9558C136.219 63.7078 137.557 65.8539 138.367 68.2248C139.441 71.0414 139.861 74.681 139.861 79.1423V111.359C139.861 112.017 139.575 112.346 139.002 112.346L126.462 112.46C126.317 112.481 126.168 112.468 126.028 112.42C125.888 112.373 125.761 112.292 125.657 112.186C125.553 112.08 125.474 111.95 125.428 111.807C125.381 111.664 125.368 111.512 125.389 111.363V80.7966C125.354 78.7495 124.913 76.7309 124.093 74.8631C123.517 73.485 122.567 72.3044 121.356 71.4612C119.986 70.6043 118.398 70.1841 116.794 70.2542C115.069 70.2286 113.357 70.5462 111.75 71.1871C110.281 71.7867 108.934 72.661 107.779 73.7653V111.359C107.779 112.017 107.492 112.346 106.92 112.346H94.2731C94.1419 112.365 94.0081 112.353 93.8824 112.31C93.7566 112.267 93.6423 112.195 93.5486 112.099C93.4548 112.004 93.3842 111.887 93.3422 111.758C93.3003 111.63 93.2882 111.493 93.3069 111.359" fill="#9999FF"/>
</g>
</g>
<defs>
<clipPath id="clip0_126_150">
<rect width="160" height="159.744" fill="white"/>
</clipPath>
</defs>
</svg>
