<svg width="71" height="71" viewBox="0 0 71 71" fill="none" xmlns="http://www.w3.org/2000/svg">
<g id="logos:adobe-illustrator" clip-path="url(#clip0_55_504)">
<path id="Vector" d="M58.8789 0.5H12.1211C5.70294 0.5 0.5 5.82781 0.5 12.4V58.488C0.5 65.0602 5.70294 70.388 12.1211 70.388H58.8789C65.2971 70.388 70.5 65.0602 70.5 58.488V12.4C70.5 5.82781 65.2971 0.5 58.8789 0.5Z" fill="#330000"/>
<path id="Vector_2" d="M34.421 42.3741H23.5737L21.3666 49.3833C21.3365 49.5112 21.2638 49.6243 21.1609 49.7032C21.058 49.7821 20.9315 49.8218 20.803 49.8155H15.3088C14.9957 49.8155 14.8861 49.6394 14.9801 49.2871L24.3719 21.6344C24.4657 21.3465 24.5598 21.0186 24.6535 20.6504C24.7766 20.0097 24.8395 19.3589 24.8414 18.7061C24.835 18.6604 24.8391 18.6139 24.8534 18.5701C24.8676 18.5264 24.8916 18.4866 24.9235 18.454C24.9554 18.4213 24.9943 18.3967 25.0371 18.3821C25.0799 18.3675 25.1254 18.3633 25.1701 18.3698H32.6366C32.8553 18.3698 32.9805 18.45 33.0123 18.6102L43.6717 49.3352C43.7657 49.6556 43.6717 49.8158 43.39 49.8155H37.2853C37.1804 49.8274 37.075 49.7998 36.9885 49.738C36.9021 49.6761 36.8407 49.5842 36.8158 49.4795L34.421 42.3741ZM25.2641 36.3251H32.6836L32.5778 35.9682L32.408 35.4029L32.2868 35.0059L32.0935 34.3809L31.6825 33.065L31.321 31.8984L30.3823 28.8597C30.1487 28.1043 29.9245 27.3459 29.7097 26.5847L29.538 25.9669L29.3373 25.2364L29.031 24.1043L28.9736 23.891H28.9268C28.6919 25.0433 28.4057 26.1841 28.0693 27.3099L27.3726 29.6011L26.9893 30.8669L26.6023 32.1484C26.5323 32.3798 26.4629 32.6088 26.3932 32.8349L26.1853 33.5053L25.9786 34.16L25.773 34.7985L25.5685 35.4211C25.5007 35.626 25.4328 35.8281 25.3653 36.0277L25.2641 36.3251ZM50.0105 23.4588C49.5316 23.4784 49.054 23.3945 48.6089 23.2125C48.1639 23.0305 47.7614 22.7545 47.4279 22.4026C47.0952 22.0354 46.8368 21.6046 46.6676 21.135C46.4983 20.6654 46.4215 20.1662 46.4416 19.6661C46.4246 19.171 46.5099 18.6779 46.6919 18.2188C46.874 17.7597 47.1487 17.3451 47.4982 17.002C48.1722 16.3404 49.0699 15.9702 50.0042 15.9685L50.1043 15.9696C51.2314 15.9696 52.116 16.3134 52.7577 17.0017C53.0816 17.3593 53.3334 17.7787 53.4985 18.2359C53.6637 18.6931 53.739 19.1791 53.7202 19.6661C53.7399 20.1682 53.6607 20.6691 53.4873 21.1393C53.3138 21.6094 53.0498 22.0392 52.7107 22.4029C52.3684 22.7479 51.962 23.0193 51.5155 23.2013C51.069 23.3832 50.5914 23.472 50.1109 23.4624L50.0105 23.4588ZM46.7703 49.3352V26.3874C46.7703 26.0994 46.895 25.9552 47.146 25.9552H52.9221C53.1723 25.9552 53.2975 26.0991 53.2978 26.3874V49.3352C53.2978 49.6556 53.1725 49.8158 52.9221 49.8155H47.193C46.9261 49.8155 46.7856 49.6718 46.7716 49.3844L46.7703 49.3352Z" fill="#FF9A00"/>
</g>
<defs>
<clipPath id="clip0_55_504">
<rect width="70" height="69.888" fill="white" transform="translate(0.5 0.5)"/>
</clipPath>
</defs>
</svg>
