<svg width="71" height="71" viewBox="0 0 71 71" fill="none" xmlns="http://www.w3.org/2000/svg">
<g id="logos:visual-studio-code" clip-path="url(#clip0_55_526)">
<g id="Mask group">
<mask id="mask0_55_526" style="mask-type:luminance" maskUnits="userSpaceOnUse" x="0" y="0" width="71" height="71">
<g id="Group">
<path id="Vector" d="M49.9452 70.1155C50.5001 70.3336 51.0935 70.4342 51.6886 70.4112C52.2836 70.3881 52.8676 70.2419 53.4042 69.9816L67.76 63.0196C68.4993 62.6608 69.1232 62.099 69.5597 61.3987C69.9963 60.6984 70.2279 59.8881 70.2277 59.061V11.8535C70.2278 11.0265 69.9963 10.2162 69.5597 9.51597C69.1231 8.81572 68.4993 8.25391 67.76 7.89517L53.4045 0.932923C52.5933 0.539519 51.6809 0.409987 50.7934 0.562258C49.906 0.714529 49.0875 1.14107 48.4512 1.78284L20.9688 27.0531L8.99771 17.8947C8.45772 17.4816 7.79127 17.272 7.114 17.3024C6.43673 17.3327 5.79137 17.6011 5.28989 18.0609L1.45056 21.581C0.184542 22.7415 0.183175 24.7489 1.44728 25.9114L11.8289 35.4573L1.44728 45.0029C0.183175 46.1656 0.184542 48.1727 1.45056 49.3335L5.28989 52.8534C5.79133 53.3132 6.43668 53.5816 7.11395 53.612C7.79122 53.6424 8.45769 53.4329 8.99771 53.0198L20.9688 43.8611L48.4512 69.1314C48.8761 69.5603 49.3849 69.8955 49.9452 70.1155ZM52.8065 19.5036L31.9536 35.4573L52.8065 51.4106V19.5036Z" fill="white"/>
</g>
</mask>
<g mask="url(#mask0_55_526)">
<path id="Vector_2" d="M67.8027 7.90585L53.4358 0.933965C52.6244 0.540242 51.7116 0.410435 50.8238 0.562506C49.936 0.714576 49.117 1.14101 48.4803 1.78278L1.44791 45.0028C0.182989 46.1655 0.18463 48.1727 1.45119 49.3335L5.29299 52.8533C5.79488 53.3132 6.44062 53.5817 7.11829 53.6121C7.79596 53.6425 8.46281 53.4329 9.00326 53.0198L65.6409 9.71455C67.541 8.26192 70.2702 9.62774 70.2702 12.0314V11.8633C70.2702 11.0365 70.0386 10.2264 69.6021 9.52633C69.1656 8.82624 68.5419 8.26455 67.8027 7.90585Z" fill="#0065A9"/>
</g>
</g>
<g id="Mask group_2">
<mask id="mask1_55_526" style="mask-type:luminance" maskUnits="userSpaceOnUse" x="0" y="0" width="71" height="71">
<g id="Group_2">
<path id="Vector_3" d="M49.9452 70.1155C50.5001 70.3336 51.0935 70.4342 51.6886 70.4112C52.2836 70.3881 52.8676 70.2419 53.4042 69.9816L67.76 63.0196C68.4993 62.6608 69.1232 62.099 69.5597 61.3987C69.9963 60.6984 70.2279 59.8881 70.2277 59.061V11.8535C70.2278 11.0265 69.9963 10.2162 69.5597 9.51597C69.1231 8.81572 68.4993 8.25391 67.76 7.89517L53.4045 0.932923C52.5933 0.539519 51.6809 0.409987 50.7934 0.562258C49.906 0.714529 49.0875 1.14107 48.4512 1.78284L20.9688 27.0531L8.99771 17.8947C8.45772 17.4816 7.79127 17.272 7.114 17.3024C6.43673 17.3327 5.79137 17.6011 5.28989 18.0609L1.45056 21.581C0.184542 22.7415 0.183175 24.7489 1.44728 25.9114L11.8289 35.4573L1.44728 45.0029C0.183175 46.1656 0.184542 48.1727 1.45056 49.3335L5.28989 52.8534C5.79133 53.3132 6.43668 53.5816 7.11395 53.612C7.79122 53.6424 8.45769 53.4329 8.99771 53.0198L20.9688 43.8611L48.4512 69.1314C48.8761 69.5603 49.3849 69.8955 49.9452 70.1155ZM52.8065 19.5036L31.9536 35.4573L52.8065 51.4106V19.5036Z" fill="white"/>
</g>
</mask>
<g mask="url(#mask1_55_526)">
<path id="Vector_4" d="M67.8027 63.0083L53.4358 69.9802C52.6243 70.3739 51.7116 70.5036 50.8238 70.3516C49.936 70.1995 49.1171 69.7731 48.4803 69.1314L1.44791 25.9114C0.182989 24.7489 0.18463 22.7415 1.45119 21.581L5.29299 18.0609C5.79491 17.601 6.44067 17.3326 7.11834 17.3023C7.796 17.2719 8.46285 17.4815 9.00326 17.8947L65.6409 61.1996C67.541 62.6523 70.2702 61.2865 70.2702 58.8825V59.0509C70.2702 59.8777 70.0386 60.6878 69.6021 61.3878C69.1656 62.0879 68.5419 62.6496 67.8027 63.0083Z" fill="#007ACC"/>
</g>
</g>
<g id="Mask group_3">
<mask id="mask2_55_526" style="mask-type:luminance" maskUnits="userSpaceOnUse" x="0" y="0" width="71" height="71">
<g id="Group_3">
<path id="Vector_5" d="M49.9452 70.1155C50.5001 70.3336 51.0935 70.4342 51.6886 70.4112C52.2836 70.3881 52.8676 70.2419 53.4042 69.9816L67.76 63.0196C68.4993 62.6608 69.1232 62.099 69.5597 61.3987C69.9963 60.6984 70.2279 59.8881 70.2277 59.061V11.8535C70.2278 11.0265 69.9963 10.2162 69.5597 9.51597C69.1231 8.81572 68.4993 8.25391 67.76 7.89517L53.4045 0.932923C52.5933 0.539519 51.6809 0.409987 50.7934 0.562258C49.906 0.714529 49.0875 1.14107 48.4512 1.78284L20.9688 27.0531L8.99771 17.8947C8.45772 17.4816 7.79127 17.272 7.114 17.3024C6.43673 17.3327 5.79137 17.6011 5.28989 18.0609L1.45056 21.581C0.184542 22.7415 0.183175 24.7489 1.44728 25.9114L11.8289 35.4573L1.44728 45.0029C0.183175 46.1656 0.184542 48.1727 1.45056 49.3335L5.28989 52.8534C5.79133 53.3132 6.43668 53.5816 7.11395 53.612C7.79122 53.6424 8.45769 53.4329 8.99771 53.0198L20.9688 43.8611L48.4512 69.1314C48.8761 69.5603 49.3849 69.8955 49.9452 70.1155ZM52.8065 19.5036L31.9536 35.4573L52.8065 51.4106V19.5036Z" fill="white"/>
</g>
</mask>
<g mask="url(#mask2_55_526)">
<path id="Vector_6" d="M53.3904 69.9857C52.5788 70.3792 51.666 70.5088 50.7781 70.3566C49.8903 70.2044 49.0713 69.7779 48.4344 69.1361C50.0425 70.7566 52.7924 69.6087 52.7924 67.3164V3.60673C52.7924 1.31437 50.0425 0.166531 48.4344 1.78728C49.0712 1.14545 49.8902 0.718912 50.7781 0.566652C51.666 0.414392 52.5788 0.543932 53.3904 0.937358L67.7549 7.8996C68.4946 8.25809 69.1187 8.81981 69.5555 9.52009C69.9924 10.2204 70.2241 11.0307 70.2241 11.8579V59.0657C70.2241 60.7537 69.2643 62.2926 67.7549 63.024L53.3904 69.9857Z" fill="#1F9CF0"/>
</g>
</g>
<g id="Mask group_4">
<mask id="mask3_55_526" style="mask-type:luminance" maskUnits="userSpaceOnUse" x="0" y="0" width="71" height="71">
<g id="Group_4">
<path id="Vector_7" d="M49.9452 70.1155C50.5001 70.3336 51.0935 70.4342 51.6886 70.4112C52.2836 70.3881 52.8676 70.2419 53.4042 69.9816L67.76 63.0196C68.4993 62.6608 69.1232 62.099 69.5597 61.3987C69.9963 60.6984 70.2279 59.8881 70.2277 59.061V11.8535C70.2278 11.0265 69.9963 10.2162 69.5597 9.51597C69.1231 8.81572 68.4993 8.25391 67.76 7.89517L53.4045 0.932923C52.5933 0.539519 51.6809 0.409987 50.7934 0.562258C49.906 0.714529 49.0875 1.14107 48.4512 1.78284L20.9688 27.0531L8.99771 17.8947C8.45772 17.4816 7.79127 17.272 7.114 17.3024C6.43673 17.3327 5.79137 17.6011 5.28989 18.0609L1.45056 21.581C0.184542 22.7415 0.183175 24.7489 1.44728 25.9114L11.8289 35.4573L1.44728 45.0029C0.183175 46.1656 0.184542 48.1727 1.45056 49.3335L5.28989 52.8534C5.79133 53.3132 6.43668 53.5816 7.11395 53.612C7.79122 53.6424 8.45769 53.4329 8.99771 53.0198L20.9688 43.8611L48.4512 69.1314C48.8761 69.5603 49.3849 69.8955 49.9452 70.1155ZM52.8065 19.5036L31.9536 35.4573L52.8065 51.4106V19.5036Z" fill="white"/>
</g>
</mask>
<g mask="url(#mask3_55_526)">
<path id="Vector_8" d="M49.9451 70.1155C50.5 70.3335 51.0934 70.4342 51.6884 70.4111C52.2835 70.3881 52.8675 70.2419 53.4041 69.9816L67.7596 63.0193C68.499 62.6607 69.1229 62.0989 69.5595 61.3986C69.9961 60.6984 70.2277 59.8881 70.2276 59.061V11.8535C70.2277 11.0265 69.9961 10.2162 69.5596 9.51597C69.123 8.81572 68.4992 8.2539 67.7598 7.89516L53.4038 0.932643C52.5927 0.539302 51.6803 0.409805 50.7929 0.562074C49.9056 0.714344 49.0871 1.14085 48.4508 1.78256L20.9687 27.0531L8.99758 17.8947C8.45759 17.4816 7.79115 17.272 7.11388 17.3024C6.4366 17.3327 5.79124 17.6011 5.28977 18.0609L1.45044 21.581C0.18442 22.7415 0.183053 24.7489 1.44715 25.9113L11.8288 35.4573L1.44715 45.0029C0.183053 46.1656 0.18442 48.1727 1.45044 49.3335L5.28977 52.8534C5.79121 53.3132 6.43655 53.5816 7.11383 53.612C7.7911 53.6424 8.45756 53.4329 8.99758 53.0198L20.9687 43.8611L48.4508 69.1314C48.8758 69.5603 49.3847 69.8955 49.9451 70.1155ZM52.8064 19.5033L31.9535 35.4573L52.8064 51.4106V19.5033Z" fill="url(#paint0_linear_55_526)" fill-opacity="0.25"/>
</g>
</g>
</g>
<defs>
<linearGradient id="paint0_linear_55_526" x1="3486.88" y1="0.5" x2="3486.88" y2="6991.93" gradientUnits="userSpaceOnUse">
<stop stop-color="white"/>
<stop offset="1" stop-color="white" stop-opacity="0"/>
</linearGradient>
<clipPath id="clip0_55_526">
<rect width="70" height="70" fill="white" transform="translate(0.5 0.5)"/>
</clipPath>
</defs>
</svg>
