<svg width="71" height="71" viewBox="0 0 71 71" fill="none" xmlns="http://www.w3.org/2000/svg">
<g id="logos:adobe-animate" clip-path="url(#clip0_55_511)">
<path id="Vector" d="M58.8789 0.5H12.1211C5.70294 0.5 0.5 5.82781 0.5 12.4V58.488C0.5 65.0602 5.70294 70.388 12.1211 70.388H58.8789C65.2971 70.388 70.5 65.0602 70.5 58.488V12.4C70.5 5.82781 65.2971 0.5 58.8789 0.5Z" fill="#00005B"/>
<path id="Vector_2" d="M28.8043 42.2463H17.9571L15.7291 49.2444C15.7008 49.3646 15.6346 49.4721 15.5407 49.5502C15.4469 49.6282 15.3305 49.6726 15.2096 49.6766H9.67164C9.35828 49.6766 9.24863 49.5004 9.34297 49.1482L18.7738 21.6347L18.8988 21.2565C18.951 21.0963 19.0032 20.926 19.0555 20.7214C19.1785 20.0809 19.2414 19.4299 19.2433 18.7771C19.237 18.7315 19.2411 18.685 19.2554 18.6412C19.2696 18.5975 19.2937 18.5578 19.3256 18.5252C19.3574 18.4926 19.3963 18.468 19.4391 18.4534C19.4818 18.4388 19.5273 18.4346 19.572 18.4411H27.0382C27.257 18.4411 27.3822 18.521 27.4139 18.6812L38.0342 49.1963C38.1283 49.5164 38.0342 49.6765 37.7526 49.6763H31.6481C31.5432 49.6882 31.4377 49.6607 31.3512 49.5989C31.2647 49.537 31.2033 49.4451 31.1783 49.3402L28.8043 42.2463ZM19.6661 36.3251H27.0852L26.9797 35.9682L26.8096 35.4029L26.5613 34.5933L26.0842 33.065L24.7843 28.8597C24.5506 28.1043 24.3264 27.3459 24.1116 26.5847L23.8715 25.7192L23.6746 25.0016L23.4327 24.1043L23.3755 23.891H23.3287C23.0937 25.0433 22.8075 26.1841 22.471 27.3099L22.1538 28.3506L21.3909 30.8666L20.8995 32.4936L20.6909 33.1721L20.4836 33.8346L20.2775 34.4812C20.0792 35.0978 19.8755 35.7125 19.6661 36.3251ZM41.3212 49.2195V31.5241C41.3212 31.4034 41.3212 31.2792 41.3201 31.1523L41.3168 30.7609L41.3111 30.3508L41.298 29.7L41.2824 29.1317C41.2739 28.8573 41.2639 28.583 41.2523 28.3087L41.2277 27.7795L41.1921 27.1231L41.1626 26.6423L41.1451 26.3969L41.1336 26.2548C41.1154 26.207 41.1101 26.155 41.1183 26.1043C41.1266 26.0536 41.148 26.0062 41.1804 25.9669C41.2188 25.9325 41.2635 25.9064 41.3119 25.8899C41.3603 25.8734 41.4114 25.867 41.4623 25.871H46.1498C46.3116 25.8655 46.4723 25.8984 46.6196 25.9669C46.7462 26.0337 46.8334 26.159 46.8542 26.3029L47.0656 26.9512C47.1521 27.2689 47.2071 27.5946 47.2299 27.9235C48.1378 27.1104 49.1899 26.4831 50.3291 26.0754C51.4617 25.6745 52.6523 25.4716 53.8509 25.4752C54.7844 25.4796 55.7113 25.6336 56.5982 25.9314C57.6219 26.266 58.5556 26.8392 59.3257 27.6057C60.0957 28.3722 60.6812 29.3111 61.0358 30.3483C61.5053 31.5806 61.6893 33.1729 61.6893 35.1248V49.2195C61.6893 49.5074 61.5641 49.6514 61.3136 49.6514L55.8273 49.7012C55.7635 49.7106 55.6985 49.7046 55.6373 49.6838C55.5761 49.663 55.5205 49.628 55.4749 49.5814C55.4294 49.5348 55.395 49.478 55.3746 49.4154C55.3543 49.3529 55.3484 49.2864 55.3576 49.2212V35.8485C55.3424 34.9529 55.1495 34.0698 54.7907 33.2526C54.5389 32.6497 54.1232 32.1332 53.5931 31.7643C52.994 31.3894 52.2993 31.2055 51.5975 31.2362C50.8428 31.225 50.0936 31.3639 49.3906 31.6443C48.7479 31.9067 48.1587 32.2892 47.6532 32.7723V49.2195C47.6532 49.5074 47.528 49.6514 47.2775 49.6514H41.7445C41.6871 49.6598 41.6286 49.6544 41.5735 49.6357C41.5185 49.617 41.4685 49.5854 41.4275 49.5435C41.3865 49.5016 41.3556 49.4505 41.3372 49.3942C41.3189 49.338 41.3136 49.2782 41.3218 49.2195" fill="#9999FF"/>
</g>
<defs>
<clipPath id="clip0_55_511">
<rect width="70" height="69.888" fill="white" transform="translate(0.5 0.5)"/>
</clipPath>
</defs>
</svg>
