<svg width="71" height="71" viewBox="0 0 71 71" fill="none" xmlns="http://www.w3.org/2000/svg">
<g id="skill-icons:photoshop" clip-path="url(#clip0_55_507)">
<g id="Group">
<path id="Vector" d="M54.0938 0.5H16.9062C7.84533 0.5 0.5 7.84533 0.5 16.9062V54.0938C0.5 63.1547 7.84533 70.5 16.9062 70.5H54.0938C63.1547 70.5 70.5 63.1547 70.5 54.0938V16.9062C70.5 7.84533 63.1547 0.5 54.0938 0.5Z" fill="#001E36"/>
<path id="Vector_2" d="M16.25 49.1828V19.1703C16.25 18.9661 16.3375 18.8496 16.5418 18.8496C17.0375 18.8496 17.5043 18.8496 18.175 18.8203C18.875 18.7911 19.6043 18.7911 20.3918 18.7621C21.1793 18.7328 22.025 18.7328 22.9293 18.7036C23.8332 18.6746 24.7082 18.6746 25.5832 18.6746C27.975 18.6746 29.9582 18.9661 31.5918 19.5786C33.0559 20.0758 34.3909 20.8928 35.5 21.9703C36.4398 22.9133 37.166 24.0472 37.6293 25.2953C38.0668 26.5203 38.3 27.7746 38.3 29.0871C38.3 31.5953 37.7168 33.6661 36.55 35.2996C35.3832 36.9328 33.75 38.1578 31.8543 38.8578C29.8707 39.5871 27.6832 39.8496 25.2918 39.8496C24.5918 39.8496 24.125 39.8496 23.8332 39.8203C23.5418 39.7911 23.1332 39.7911 22.5793 39.7911V49.1536C22.6082 49.3578 22.4625 49.5328 22.2582 49.5621H16.6C16.3668 49.5621 16.25 49.4453 16.25 49.1828ZM22.6082 24.4786V34.2786C23.0168 34.3078 23.3957 34.3371 23.7457 34.3371H25.2918C26.4293 34.3371 27.5668 34.1621 28.6457 33.8121C29.5793 33.5496 30.3957 32.9953 31.0375 32.2661C31.65 31.5371 31.9418 30.5453 31.9418 29.2621C31.9691 28.3506 31.7364 27.4501 31.2707 26.6661C30.775 25.9078 30.075 25.3246 29.2293 25.0036C28.15 24.5661 26.9832 24.3911 25.7875 24.4203C25.0293 24.4203 24.3582 24.4203 23.8043 24.4496C23.2207 24.4203 22.8125 24.4496 22.6082 24.4786ZM56.5 32.4996C55.625 32.0328 54.6918 31.7121 53.7 31.5078C52.6207 31.2746 51.5418 31.1286 50.4332 31.1286C49.85 31.0996 49.2375 31.1871 48.6832 31.3328C48.3043 31.4203 47.9832 31.6246 47.7793 31.9161C47.6332 32.1496 47.5457 32.4411 47.5457 32.7036C47.5457 32.9661 47.6625 33.2286 47.8375 33.4621C48.1 33.7828 48.45 34.0453 48.8293 34.2496C49.5055 34.5998 50.1963 34.9209 50.9 35.2121C52.475 35.7371 53.9918 36.4661 55.3918 37.3411C56.3543 37.9536 57.1418 38.7703 57.6957 39.7621C58.1625 40.6953 58.3957 41.7161 58.3668 42.7661C58.3957 44.1371 57.9875 45.5078 57.2293 46.6453C56.4157 47.8096 55.2805 48.7116 53.9625 49.2411C52.5332 49.8536 50.7832 50.1746 48.6832 50.1746C47.3418 50.1746 46.0293 50.0578 44.7168 49.7953C43.6881 49.6176 42.6876 49.3038 41.7418 48.8621C41.5375 48.7453 41.3918 48.5411 41.4207 48.3078V43.2328C41.4207 43.1453 41.45 43.0286 41.5375 42.9703C41.625 42.9121 41.7125 42.9411 41.8 42.9996C42.9375 43.6703 44.1332 44.1371 45.4168 44.4286C46.525 44.7203 47.6918 44.8661 48.8582 44.8661C49.9668 44.8661 50.7543 44.7203 51.2793 44.4578C51.7457 44.2536 52.0668 43.7578 52.0668 43.2328C52.0668 42.8246 51.8332 42.4453 51.3668 42.0661C50.9 41.6871 49.9375 41.2496 48.5082 40.6953C47.0422 40.1787 45.6499 39.4727 44.3668 38.5953C43.4528 37.9439 42.6955 37.0969 42.15 36.1161C41.6832 35.1828 41.45 34.1621 41.4793 33.1411C41.4793 31.8871 41.8293 30.6911 42.4707 29.6121C43.2 28.4453 44.2793 27.5121 45.5332 26.9286C46.9043 26.2286 48.625 25.9078 50.6957 25.9078C51.8918 25.9078 53.1168 25.9953 54.3125 26.1703C55.1875 26.2871 56.0332 26.5203 56.8207 26.8411C56.9375 26.8703 57.0543 26.9871 57.1125 27.1036C57.1418 27.2203 57.1707 27.3371 57.1707 27.4536V32.2078C57.1707 32.3246 57.1125 32.4411 57.025 32.4996C56.7625 32.5578 56.6168 32.5578 56.5 32.4996Z" fill="#31A8FF"/>
</g>
</g>
<defs>
<clipPath id="clip0_55_507">
<rect width="70" height="70" fill="white" transform="translate(0.5 0.5)"/>
</clipPath>
</defs>
</svg>
