<svg width="127" height="127" viewBox="0 0 127 127" fill="none" xmlns="http://www.w3.org/2000/svg">
<g id="ic:baseline-tiktok">
<path id="Vector" d="M87.842 30.7975C84.2247 26.668 82.2313 21.3647 82.2328 15.875H65.8816V81.4917C65.7555 85.0425 64.2564 88.4059 61.6999 90.8735C59.1435 93.3411 55.7292 94.7203 52.1762 94.7208C44.662 94.7208 38.4178 88.5825 38.4178 80.9625C38.4178 71.8608 47.202 65.0346 56.2508 67.8392V51.1175C37.9945 48.6833 22.0137 62.865 22.0137 80.9625C22.0137 98.5837 36.6187 111.125 52.1233 111.125C68.7391 111.125 82.2328 97.6312 82.2328 80.9625V47.6779C88.8633 52.4396 96.8239 54.9944 104.987 54.9804V38.6292C104.987 38.6292 95.0387 39.1054 87.842 30.7975Z" fill="#9F82D2"/>
</g>
</svg>
