<svg width="127" height="127" viewBox="0 0 127 127" fill="none" xmlns="http://www.w3.org/2000/svg">
<g id="ic:baseline-whatsapp">
<path id="Vector" d="M100.806 25.9821C95.9546 21.0816 90.176 17.1961 83.8072 14.5523C77.4385 11.9085 70.6071 10.5593 63.7114 10.5833C34.8189 10.5833 11.271 34.1312 11.271 63.0237C11.271 72.2842 13.7052 81.28 18.256 89.2175L10.8477 116.417L38.6289 109.114C46.3018 113.295 54.9272 115.517 63.7114 115.517C92.6039 115.517 116.152 91.9692 116.152 63.0767C116.152 49.0537 110.701 35.8775 100.806 25.9821ZM63.7114 106.627C55.8797 106.627 48.2068 104.51 41.4864 100.542L39.8989 99.5892L23.3889 103.928L27.781 87.8417L26.7227 86.2012C22.3716 79.2531 20.0612 71.2218 20.0552 63.0237C20.0552 38.9996 39.6343 19.4204 63.6585 19.4204C75.3002 19.4204 86.2539 23.9712 94.456 32.2262C98.5173 36.2689 101.736 41.0774 103.925 46.3731C106.114 51.6688 107.23 57.3464 107.209 63.0767C107.315 87.1008 87.7356 106.627 63.7114 106.627ZM87.6297 74.0304C86.3068 73.3954 79.851 70.2204 78.6868 69.7442C77.4697 69.3208 76.6231 69.1092 75.7235 70.3792C74.8239 71.7021 72.3368 74.6654 71.596 75.5121C70.8552 76.4117 70.0614 76.5175 68.7385 75.8296C67.4156 75.1946 63.1822 73.7658 58.2081 69.3208C54.2922 65.8283 51.6993 61.5421 50.9056 60.2192C50.1647 58.8962 50.7997 58.2083 51.4877 57.5204C52.0697 56.9383 52.8106 55.9858 53.4456 55.245C54.0806 54.5042 54.3452 53.9221 54.7685 53.0754C55.1918 52.1758 54.9802 51.435 54.6627 50.8C54.3452 50.165 51.6993 43.7092 50.641 41.0633C49.5827 38.5233 48.4714 38.8408 47.6777 38.7879H45.1377C44.2381 38.7879 42.8622 39.1054 41.6452 40.4283C40.481 41.7512 37.0943 44.9262 37.0943 51.3821C37.0943 57.8379 41.8039 64.0821 42.4389 64.9287C43.0739 65.8283 51.6993 79.0575 64.8227 84.7196C67.9447 86.0954 70.3789 86.8892 72.2839 87.4712C75.406 88.4767 78.2635 88.3179 80.5389 88.0004C83.0789 87.63 88.3177 84.8254 89.376 81.7562C90.4872 78.6871 90.4872 76.0942 90.1168 75.5121C89.7464 74.93 88.9527 74.6654 87.6297 74.0304Z" fill="#9F82D2"/>
</g>
</svg>
